<svg xmlns="http://www.w3.org/2000/svg" viewBox="0 0 1200 480" width="1200" height="480" role="img" aria-label="Euro Analyst Compass - comparing 30 European countries for data analysts">
  <defs>
    <linearGradient id="bg" x1="0" y1="0" x2="1" y2="1">
      <stop offset="0" stop-color="#08222A"/><stop offset="1" stop-color="#0B3C49"/>
    </linearGradient>
    <linearGradient id="bar" x1="0" y1="0" x2="1" y2="0">
      <stop offset="0" stop-color="#15837C"/><stop offset="1" stop-color="#F0B429"/>
    </linearGradient>
    <linearGradient id="spark" x1="0" y1="0" x2="0" y2="1">
      <stop offset="0" stop-color="#F0B429" stop-opacity="0.35"/>
      <stop offset="1" stop-color="#F0B429" stop-opacity="0"/>
    </linearGradient>
    <filter id="glow" x="-60%" y="-60%" width="220%" height="220%">
      <feGaussianBlur stdDeviation="3.2" result="b"/>
      <feMerge><feMergeNode in="b"/><feMergeNode in="SourceGraphic"/></feMerge>
    </filter>
    <clipPath id="mapclip"><rect x="0" y="0" width="560" height="480"/></clipPath>
  </defs>

  <rect width="1200" height="480" fill="url(#bg)"/>

  <!-- graticule -->
  <g opacity="0.05" stroke="#7FD4CB" stroke-width="1">
    <line x1="0" y1="96" x2="1200" y2="96"/><line x1="0" y1="192" x2="1200" y2="192"/>
    <line x1="0" y1="288" x2="1200" y2="288"/><line x1="0" y1="384" x2="1200" y2="384"/>
    <line x1="240" y1="0" x2="240" y2="480"/><line x1="480" y1="0" x2="480" y2="480"/>
    <line x1="720" y1="0" x2="720" y2="480"/><line x1="960" y1="0" x2="960" y2="480"/>
  </g>

  <!-- ============ MAP (ETRS89-LAEA / EPSG:3035, same projection Eurostat uses) ============ -->
  <g clip-path="url(#mapclip)">
    <!-- neighbours, for geographic context only -->
    <path d="M385.4,226.7L397.1,219.7L402.7,224.5L403.2,230.6L408.8,229.0L415.2,236.7L426.1,231.3L431.8,235.3L446.2,232.6L451.2,251.9L445.2,254.4L443.8,264.9L430.3,275.0L426.7,283.0L425.9,278.4L427.1,287.4L417.8,285.1L403.4,289.0L400.5,286.4L408.1,283.1L403.9,284.8L400.1,278.7L403.0,284.8L399.4,284.2L389.5,298.5L391.6,304.9L383.4,306.9L380.2,305.3L383.0,293.1L391.4,291.1L380.2,276.3L368.5,273.6L351.8,286.5L337.3,286.7L331.2,280.8L335.4,275.0L333.5,267.9L340.7,256.6L335.4,245.4L348.5,239.1L380.4,238.5L380.4,228.9L385.4,226.7Z" fill="#15837C" stroke="none" stroke-width="0" opacity="0.10"/>
    <path d="M335.5,246.6L331.2,238.7L335.1,232.8L330.0,220.2L343.3,214.8L341.8,207.1L346.8,201.2L344.7,197.0L352.0,189.7L369.3,191.0L371.2,199.9L387.2,211.6L379.7,215.9L385.4,226.7L380.4,228.9L380.5,238.4L344.7,239.7L335.5,246.6Z" fill="#15837C" stroke="none" stroke-width="0" opacity="0.10"/>
    <path d="M324.8,216.5L305.5,218.5L307.0,212.6L312.2,208.3L310.3,212.1L313.8,212.3L314.8,207.7L322.4,209.0L324.8,216.5ZM416.5,286.4L424.3,285.4L432.1,290.5L439.9,286.8L422.6,304.6L419.1,297.4L410.7,296.8L417.8,289.1L416.5,286.4Z" fill="#15837C" stroke="none" stroke-width="0" opacity="0.10"/>
    <path d="M329.8,356.3L342.3,348.7L347.3,351.8L349.2,359.0L334.4,367.1L330.2,363.4L329.8,356.3Z" fill="#15837C" stroke="none" stroke-width="0" opacity="0.10"/>
    <path d="M329.8,356.3L330.2,363.4L335.2,369.3L329.8,381.3L321.6,373.7L322.7,360.3L319.4,354.3L322.1,348.7L329.8,356.3Z" fill="#15837C" stroke="none" stroke-width="0" opacity="0.10"/>
    <path d="M325.0,349.5L329.7,340.7L338.1,346.3L330.8,356.5L325.0,349.5Z" fill="#15837C" stroke="none" stroke-width="0" opacity="0.10"/>
    <path d="M504.0,309.2L509.8,318.6L520.1,319.1L515.5,324.9L523.1,333.8L523.0,339.3L530.4,344.8L527.5,348.5L524.6,345.8L514.4,350.2L489.8,370.2L468.7,376.9L470.8,383.0L468.0,389.0L463.5,385.0L465.9,380.2L463.5,377.7L440.1,396.4L420.5,392.6L420.0,400.3L414.0,403.2L402.2,397.7L399.5,402.1L399.5,399.3L393.7,402.2L400.9,396.3L392.2,399.3L394.5,395.2L388.7,392.2L389.9,388.3L381.1,387.1L381.7,382.4L384.6,385.9L388.3,383.4L384.3,382.1L384.1,371.6L377.4,374.3L377.3,368.4L383.5,361.8L398.9,358.8L397.7,356.0L404.9,352.9L399.4,353.5L397.7,349.2L413.9,346.1L422.3,334.7L438.8,325.9L452.3,330.8L467.8,328.5L481.0,322.6L496.5,307.1L504.0,309.2ZM387.2,343.5L396.9,352.0L385.6,355.2L377.0,367.9L381.0,360.7L374.8,361.5L377.9,352.8L374.7,348.7L387.2,343.5Z" fill="#15837C" stroke="none" stroke-width="0" opacity="0.10"/>
    <path d="M260.3,458.2L260.8,466.4L249.2,474.8L249.1,483.9L242.3,490.6L238.1,470.4L226.4,457.5L224.7,448.2L233.1,435.5L231.1,421.3L240.1,413.7L248.9,414.2L250.2,419.3L255.7,415.4L250.9,426.1L256.9,435.9L246.8,447.5L260.3,458.2Z" fill="#15837C" stroke="none" stroke-width="0" opacity="0.10"/>
    <path d="M143.7,202.8L151.0,203.3L153.0,211.7L148.4,215.7L136.7,208.3L143.7,202.8ZM164.3,246.7L158.2,248.0L147.8,240.5L157.9,234.9L157.9,230.6L153.3,231.1L157.8,227.2L167.2,227.6L165.2,224.9L168.3,217.6L165.9,219.3L163.8,213.8L168.4,209.4L156.7,210.9L155.5,207.8L160.8,193.9L152.8,202.2L160.6,188.0L156.2,189.5L153.6,186.2L159.2,183.2L158.7,174.8L162.7,175.8L165.0,167.2L175.6,169.3L166.6,175.8L169.9,177.0L166.5,180.4L180.4,183.1L169.4,193.8L173.0,196.1L165.9,196.1L177.7,204.2L178.6,215.2L184.7,221.9L185.1,228.1L180.0,225.9L185.5,229.8L183.4,235.5L194.0,239.9L192.3,245.8L183.8,251.7L190.4,253.3L189.9,255.9L182.0,259.4L170.8,255.7L163.7,258.9L157.3,256.0L155.1,260.7L152.0,257.4L141.3,259.7L153.4,249.3L161.2,250.9L164.3,246.7ZM152.2,174.2L152.5,169.3L158.0,166.9L152.2,174.2Z" fill="#15837C" stroke="none" stroke-width="0" opacity="0.10"/>
    <path d="M321.6,310.0L332.1,319.2L331.9,323.2L342.4,323.8L340.6,332.8L346.4,338.9L343.6,349.0L337.1,351.0L338.0,346.1L329.9,340.8L326.8,346.1L317.0,340.1L319.7,333.5L315.6,330.6L314.1,322.0L316.7,320.9L311.8,314.2L321.6,310.0Z" fill="#15837C" stroke="none" stroke-width="0" opacity="0.10"/>
    <path d="M313.1,352.5L315.5,339.6L326.8,345.3L321.5,349.3L320.5,357.9L313.1,352.5Z" fill="#15837C" stroke="none" stroke-width="0" opacity="0.10"/>
    <path d="M306.0,348.0L289.7,328.6L290.1,323.7L316.8,324.4L319.3,338.9L315.0,340.1L312.9,350.9L306.0,348.0Z" fill="#15837C" stroke="none" stroke-width="0" opacity="0.10"/>
    <path d="M362.5,277.7L368.6,273.6L380.2,276.3L388.9,287.3L391.3,291.5L383.0,293.1L382.1,304.3L378.9,304.1L375.6,289.2L362.5,277.7Z" fill="#15837C" stroke="none" stroke-width="0" opacity="0.10"/>
    <!-- the 30 countries in the dashboard -->
    <path d="M197.3,257.5L198.7,261.7L207.7,267.7L207.0,270.8L211.8,269.1L211.7,273.2L215.6,276.8L234.3,283.7L229.6,298.8L225.2,299.7L217.2,313.6L223.4,311.6L223.1,319.3L225.7,322.9L221.4,326.0L224.3,329.2L223.9,335.6L229.0,336.6L227.7,340.9L217.0,348.8L208.6,344.9L208.7,342.4L207.2,344.8L206.1,342.0L206.9,344.7L200.4,342.0L193.6,346.2L193.6,353.7L188.3,354.4L175.0,347.0L164.9,346.4L156.7,339.3L164.1,325.0L165.0,315.2L168.6,322.0L164.1,313.3L166.0,313.5L166.0,306.9L159.6,300.0L160.1,295.0L163.0,296.2L157.4,294.2L159.0,292.2L155.8,291.6L156.9,290.3L153.6,291.5L153.1,287.9L145.6,286.2L143.6,283.1L146.8,282.9L145.5,280.0L147.8,281.0L143.9,279.3L145.9,276.9L155.5,276.1L158.6,280.8L167.9,280.9L165.7,268.3L170.2,269.4L170.6,273.4L181.2,273.8L180.0,270.8L190.6,266.7L190.8,259.2L197.3,257.5ZM235.5,358.6L242.3,349.8L243.3,359.4L240.6,368.0L237.2,365.8L235.5,358.6Z" fill="#15837C" stroke="#0B3C49" stroke-width="0.6" opacity="0.42"/>
    <path d="M344.6,197.2L344.6,201.1L346.8,201.2L341.8,207.1L343.3,214.8L341.2,213.7L337.9,218.2L331.0,220.5L324.4,215.9L322.3,208.9L314.3,208.3L311.6,199.4L317.0,194.6L329.1,194.1L332.9,191.1L344.6,197.2Z" fill="#15837C" stroke="#0B3C49" stroke-width="0.6" opacity="0.42"/>
    <path d="M278.8,261.6L280.9,259.7L289.1,263.1L288.4,265.9L291.8,269.0L293.0,265.1L298.6,265.9L298.3,268.2L304.8,269.7L307.2,273.8L295.2,285.3L281.4,282.0L279.4,287.0L275.0,287.0L264.9,278.2L260.8,268.5L262.3,270.2L275.2,259.8L278.8,261.6Z" fill="#15837C" stroke="#0B3C49" stroke-width="0.6" opacity="0.42"/>
    <path d="M326.6,176.3L326.9,170.9L322.5,171.8L319.2,162.6L328.7,155.3L342.9,154.3L341.1,162.7L345.6,171.7L344.1,176.0L339.4,177.3L331.4,172.9L326.6,176.3ZM319.4,170.6L313.9,178.3L311.8,171.9L319.4,170.6ZM313.5,167.3L315.0,164.8L317.7,167.1L315.3,169.3L313.5,167.3Z" fill="#15837C" stroke="#0B3C49" stroke-width="0.6" opacity="0.42"/>
    <path d="M344.1,176.0L352.3,188.3L350.0,194.4L343.9,197.3L332.9,191.1L329.1,194.1L317.0,194.6L311.6,199.4L310.4,191.1L313.1,182.1L317.4,179.4L325.1,186.8L328.4,182.8L326.6,176.3L330.4,173.2L339.4,177.3L344.1,176.0Z" fill="#15837C" stroke="#0B3C49" stroke-width="0.6" opacity="0.42"/>
    <path d="M287.1,58.0L285.2,58.4L285.8,65.8L279.5,64.2L278.4,71.0L275.8,69.9L273.9,72.4L270.2,90.7L266.3,92.7L266.8,101.6L263.4,109.9L265.9,114.3L260.6,115.8L257.0,121.1L257.6,141.8L261.4,145.8L258.3,149.8L260.4,156.2L255.7,165.4L255.9,173.0L250.8,169.8L250.4,162.1L249.7,166.3L248.0,164.2L248.2,171.8L244.3,170.9L236.7,181.8L227.9,182.1L229.3,179.9L222.0,174.1L222.6,171.0L226.2,173.4L228.4,171.2L224.4,170.8L228.3,165.5L222.5,168.3L220.9,165.6L227.1,162.3L223.7,162.0L231.7,155.2L226.9,155.3L224.3,160.5L224.5,156.1L222.6,158.8L221.4,156.3L224.8,152.5L222.2,154.0L220.6,151.3L223.1,153.3L221.6,148.3L229.4,147.6L231.9,151.2L231.4,148.7L235.0,147.3L233.1,146.6L234.5,144.4L233.0,147.9L229.2,147.1L230.1,145.2L228.6,148.3L222.2,148.0L221.3,146.0L224.6,145.3L221.2,144.4L225.6,144.3L221.7,140.8L230.9,139.9L222.6,139.2L222.5,136.0L228.8,137.8L226.7,135.8L228.7,134.3L229.6,137.3L230.7,133.5L232.8,137.5L233.8,135.7L228.6,131.9L237.8,131.2L232.1,130.6L231.8,128.4L237.0,128.0L239.7,131.6L236.6,127.6L240.5,129.8L238.0,126.5L241.7,125.5L240.5,123.1L242.5,124.6L245.4,120.7L248.0,124.9L247.2,123.0L250.6,123.2L253.6,119.1L253.1,115.5L247.2,122.3L247.3,119.4L244.7,119.3L251.1,110.1L252.4,113.2L254.4,111.4L253.1,108.9L256.8,106.3L252.5,107.1L259.8,102.0L256.8,103.0L258.4,95.3L260.6,96.0L258.3,93.8L264.5,90.5L260.0,92.5L261.9,90.9L259.4,88.7L262.3,88.6L260.3,86.5L263.0,86.3L261.5,84.3L264.8,81.3L270.5,80.7L264.6,80.4L267.3,76.5L270.2,79.3L270.7,76.5L267.8,76.0L269.7,73.9L265.9,74.1L270.2,72.7L267.8,71.4L270.4,68.8L272.8,73.6L270.8,68.4L273.7,69.8L271.2,67.6L275.8,69.2L275.2,66.6L277.6,66.5L272.0,65.8L276.5,63.6L274.7,62.8L276.8,62.6L277.3,54.7L280.7,56.2L279.7,53.3L282.5,56.6L279.9,52.6L282.7,50.1L282.4,54.6L284.3,48.0L284.2,55.9L287.9,46.7L291.1,49.5L288.1,43.5L295.2,46.2L294.9,41.6L298.5,37.9L297.5,34.2L302.0,34.4L301.4,43.4L304.1,32.9L305.4,39.2L307.2,37.5L307.1,30.0L310.5,30.8L308.6,35.5L310.5,33.9L311.5,40.8L311.7,31.6L320.3,33.7L318.9,38.6L313.2,39.3L317.6,40.2L318.0,43.6L322.2,40.6L323.2,43.5L320.3,43.2L318.1,50.9L316.7,43.9L311.0,40.9L306.7,43.8L304.3,60.0L300.0,58.0L294.5,60.3L290.5,54.8L287.1,58.0ZM272.0,63.5L266.5,69.1L268.4,61.2L269.2,65.8L270.8,61.6L272.0,63.5ZM263.8,64.8L266.4,60.7L267.6,64.4L263.8,64.8ZM277.0,55.0L277.0,57.7L272.6,59.5L274.5,53.5L277.0,55.0ZM279.8,50.3L276.6,53.5L279.8,50.3ZM281.8,47.9L280.3,50.6L278.7,49.3L281.8,47.9ZM290.8,40.8L289.0,39.5L293.3,36.4L290.8,40.8Z" fill="#15837C" stroke="#0B3C49" stroke-width="0.6" opacity="0.42"/>
    <path d="M287.1,58.0L301.0,67.5L307.9,90.1L303.7,92.3L301.3,90.5L301.0,94.6L297.9,93.1L300.1,94.7L298.2,98.6L296.5,97.6L298.4,100.5L296.4,103.5L299.6,107.2L296.6,115.1L291.2,118.5L286.4,127.9L283.7,125.8L286.0,130.0L282.6,131.6L283.9,151.4L288.1,152.1L295.0,160.4L289.8,165.1L293.3,165.6L289.8,171.2L288.2,168.0L287.0,172.8L280.7,174.7L285.1,175.9L282.2,176.3L284.8,182.3L283.1,181.6L284.5,184.3L282.8,182.8L284.7,187.3L282.2,201.1L274.4,202.8L271.8,211.5L263.8,212.0L265.0,208.5L261.1,201.9L263.3,202.6L263.9,199.1L257.6,189.9L257.2,179.5L253.6,179.4L252.8,172.7L255.9,173.0L255.7,165.4L260.4,156.2L258.3,149.8L261.4,145.8L257.6,141.8L256.3,124.5L259.6,116.6L265.9,114.3L263.4,109.9L266.8,101.6L266.3,92.7L270.2,90.7L273.9,72.4L275.8,69.9L278.4,71.0L279.5,64.2L285.8,65.8L285.2,58.4L287.1,58.0ZM287.3,188.7L284.5,201.3L287.3,188.7ZM297.4,181.4L293.8,192.6L292.7,185.6L297.4,181.4Z" fill="#15837C" stroke="#0B3C49" stroke-width="0.6" opacity="0.42"/>
    <path d="M318.1,50.9L316.5,52.9L319.6,59.9L326.4,63.8L325.1,73.2L333.3,84.6L333.8,93.7L340.1,99.7L339.1,105.6L348.5,111.6L348.9,115.4L338.0,143.5L332.3,145.7L332.3,143.2L331.4,146.6L328.9,145.9L329.6,148.5L315.0,156.6L316.8,154.0L314.1,153.0L314.8,150.5L312.2,152.7L312.4,150.5L305.8,149.6L305.6,139.0L300.4,126.0L311.9,100.7L315.5,98.0L313.6,92.3L310.0,88.6L308.2,90.5L305.0,85.8L301.0,67.5L287.1,58.0L290.5,54.8L294.5,60.3L300.0,58.0L304.4,59.9L306.6,54.4L305.5,46.8L311.0,40.9L316.7,44.0L318.1,50.9Z" fill="#15837C" stroke="#0B3C49" stroke-width="0.6" opacity="0.42"/>
    <path d="M220.5,270.2L222.9,274.8L219.1,277.6L217.7,272.7L220.5,270.2Z" fill="#15837C" stroke="#0B3C49" stroke-width="0.6" opacity="0.42"/>
    <path d="M197.3,257.5L212.4,254.3L219.2,258.5L217.6,262.1L222.4,268.1L217.7,272.5L218.3,276.3L211.8,273.3L211.8,269.1L207.0,270.8L207.7,267.7L198.7,261.7L197.3,257.5Z" fill="#15837C" stroke="#0B3C49" stroke-width="0.6" opacity="0.42"/>
    <path d="M156.5,338.2L164.9,346.4L175.6,347.2L184.4,353.7L193.6,353.7L193.2,359.7L172.5,369.4L162.5,382.5L166.1,391.6L159.5,395.2L156.7,403.0L148.5,404.4L143.6,410.7L124.7,407.2L113.2,412.9L107.9,404.6L110.1,401.8L108.3,402.7L105.4,396.6L100.7,396.7L100.4,392.4L106.5,386.6L103.7,383.1L108.0,377.1L104.8,369.3L109.1,370.2L112.5,356.0L119.4,351.3L117.1,346.3L104.8,344.9L105.3,341.1L99.6,342.6L102.7,334.3L100.2,335.5L101.9,332.5L99.5,329.2L103.5,327.1L108.1,328.6L107.9,325.6L113.1,324.4L117.2,329.0L126.5,329.1L136.2,334.4L156.5,338.2ZM177.7,389.2L174.3,391.1L177.7,389.2ZM192.7,383.1L189.8,388.5L184.3,384.8L189.3,381.3L192.7,383.1ZM200.5,382.2L196.5,380.8L200.5,382.2Z" fill="#15837C" stroke="#0B3C49" stroke-width="0.6" opacity="0.42"/>
    <path d="M238.6,217.7L238.5,211.7L235.4,210.4L236.2,197.9L239.4,200.1L241.4,196.5L242.9,199.6L242.2,195.1L246.3,193.8L239.2,194.9L238.4,198.9L236.6,196.4L250.3,186.1L248.8,194.3L246.4,193.8L248.8,197.6L245.7,198.4L248.7,197.7L247.8,200.3L251.6,199.6L252.1,201.8L250.0,204.4L249.1,202.2L246.8,208.9L244.1,208.7L245.2,218.5L238.6,217.7ZM258.0,219.5L255.7,220.7L253.0,217.7L258.0,219.5ZM250.8,215.9L246.7,215.2L244.9,211.0L250.5,209.8L250.8,215.9ZM259.2,217.6L258.6,221.1L257.7,214.9L254.4,214.3L252.0,208.4L257.2,205.7L256.3,207.8L258.2,206.1L259.1,209.2L257.7,206.0L260.5,203.9L262.3,208.5L259.2,217.6Z" fill="#15837C" stroke="#0B3C49" stroke-width="0.6" opacity="0.42"/>
    <path d="M337.3,286.7L348.9,284.4L351.8,286.5L360.4,278.8L365.3,278.1L377.5,292.2L378.9,304.1L383.4,306.9L391.1,304.0L391.6,309.6L387.9,312.1L388.0,308.9L386.3,309.6L387.2,323.2L374.7,321.4L363.8,330.0L344.8,331.8L345.2,328.8L340.5,325.5L342.0,323.4L339.6,322.6L337.8,325.5L331.9,323.2L332.1,319.2L321.6,310.0L327.8,307.1L332.0,292.5L337.3,286.7Z" fill="#15837C" stroke="#0B3C49" stroke-width="0.6" opacity="0.42"/>
    <path d="M337.3,286.7L332.0,292.5L327.2,307.7L316.5,310.1L308.6,315.9L300.6,314.4L290.7,305.2L293.4,303.4L294.4,297.3L292.3,296.1L297.0,295.2L297.4,291.6L302.2,294.1L308.3,293.1L309.0,290.1L316.5,288.1L319.8,283.1L326.2,281.7L332.4,282.4L337.3,286.7Z" fill="#15837C" stroke="#0B3C49" stroke-width="0.6" opacity="0.42"/>
    <path d="M333.0,274.8L331.2,282.9L320.0,283.0L316.5,288.1L309.0,290.1L308.3,293.1L301.6,294.0L294.7,288.1L296.1,282.7L301.2,281.2L305.3,274.3L309.2,274.9L311.2,272.3L315.9,276.4L317.4,273.8L326.1,272.0L333.0,274.8Z" fill="#15837C" stroke="#0B3C49" stroke-width="0.6" opacity="0.42"/>
    <path d="M307.2,273.8L304.8,269.7L298.3,268.2L298.6,265.9L293.0,265.1L291.8,269.0L288.4,265.9L289.1,263.1L280.9,259.7L278.8,261.6L276.5,242.6L273.0,239.8L273.4,230.3L275.5,231.3L275.6,228.4L272.7,228.0L294.6,215.8L300.0,216.7L297.9,216.5L301.3,220.3L326.0,216.0L329.5,218.1L334.6,230.4L331.2,238.7L334.6,240.3L336.1,248.9L340.3,253.1L340.2,258.3L333.0,269.2L335.3,275.2L326.1,272.0L317.4,273.8L315.9,276.4L311.3,272.3L307.2,273.8Z" fill="#15837C" stroke="#0B3C49" stroke-width="0.6" opacity="0.42"/>
    <path d="M295.2,285.3L297.0,295.2L292.3,296.1L294.4,297.3L293.4,303.4L290.3,307.4L279.9,311.4L264.2,308.7L262.5,304.4L253.1,308.2L243.8,304.9L245.1,299.1L247.9,302.6L249.8,299.2L255.6,301.1L262.7,297.2L268.2,299.9L266.1,292.7L273.3,285.2L279.4,287.0L281.3,282.0L295.2,285.3Z" fill="#15837C" stroke="#0B3C49" stroke-width="0.6" opacity="0.42"/>
    <path d="M224.9,317.1L230.9,317.3L235.1,311.5L239.4,318.6L241.6,311.1L247.3,314.2L250.1,307.1L254.0,308.1L262.5,304.4L264.2,308.7L273.7,310.2L271.3,312.9L275.2,320.5L269.8,318.7L262.8,324.1L265.7,327.8L263.8,329.4L264.9,336.1L274.5,343.1L278.5,353.5L284.0,358.9L295.1,359.9L294.1,365.1L311.1,372.4L315.7,377.6L314.7,381.5L310.3,376.6L302.5,375.6L299.6,383.3L305.4,386.8L306.1,391.0L301.2,394.0L297.7,403.8L293.9,403.4L295.2,396.0L298.2,393.6L293.2,381.6L289.5,381.3L285.2,374.5L281.7,375.8L282.7,374.0L279.3,373.5L276.4,368.6L271.0,369.1L259.8,357.8L255.4,356.7L250.7,350.6L247.6,338.7L237.4,334.0L227.7,340.9L229.0,336.6L223.9,335.6L224.3,329.2L221.4,326.0L225.3,324.5L223.1,318.6L224.9,317.1ZM292.9,400.2L289.7,409.5L292.1,414.5L290.3,418.6L267.2,407.2L269.6,402.7L278.5,404.7L292.9,400.2ZM245.1,377.0L243.2,392.6L238.7,391.3L238.7,394.2L235.5,395.6L232.3,372.3L234.9,373.9L240.6,369.2L245.1,377.0Z" fill="#15837C" stroke="#0B3C49" stroke-width="0.6" opacity="0.42"/>
    <path d="M250.1,307.1L247.6,314.1L241.4,311.3L239.4,318.6L235.1,311.5L230.8,317.4L225.2,317.5L222.1,311.0L217.2,314.4L225.2,299.7L236.5,298.9L236.6,296.6L244.3,300.6L243.0,304.9L250.1,307.1Z" fill="#15837C" stroke="#0B3C49" stroke-width="0.6" opacity="0.42"/>
    <path d="M294.1,308.9L304.6,316.0L312.0,313.3L313.3,319.4L316.7,320.9L313.2,325.1L308.1,322.5L298.2,322.1L293.9,325.7L289.9,323.9L289.7,328.6L305.4,347.5L299.6,342.9L292.5,342.5L285.8,335.3L288.6,334.2L280.7,323.4L278.8,323.0L276.1,329.5L273.6,325.5L272.7,321.5L280.6,319.3L286.2,321.3L288.0,312.7L294.1,308.9ZM312.4,351.0L300.9,346.7L312.4,351.0Z" fill="#15837C" stroke="#0B3C49" stroke-width="0.6" opacity="0.42"/>
    <path d="M273.8,322.0L275.6,320.0L271.3,312.9L273.7,310.2L279.9,311.4L292.4,305.3L294.1,308.9L288.0,312.7L286.2,321.3L280.6,319.3L273.8,322.0Z" fill="#15837C" stroke="#0B3C49" stroke-width="0.6" opacity="0.42"/>
    <path d="M374.8,349.5L372.7,350.1L373.9,353.8L367.7,356.5L361.0,354.3L349.0,359.2L349.1,354.6L343.0,349.2L342.8,343.6L346.4,338.6L342.4,336.3L340.7,330.6L342.5,327.8L345.2,328.8L344.6,331.7L363.8,330.0L374.7,321.4L387.2,323.2L381.7,339.1L387.2,343.5L379.5,344.2L374.8,349.5Z" fill="#15837C" stroke="#0B3C49" stroke-width="0.6" opacity="0.42"/>
    <path d="M106.5,379.4L103.7,383.1L106.5,386.6L100.4,392.3L100.6,396.9L87.2,395.0L90.8,387.9L91.0,379.4L93.6,380.8L88.5,379.4L89.0,376.7L93.9,373.1L90.2,376.5L87.3,374.6L99.3,355.6L99.5,343.2L105.3,341.1L104.8,344.9L117.1,346.3L119.4,351.3L112.5,356.0L109.1,370.2L104.8,369.3L108.0,377.1L106.5,379.4ZM-37.0,335.7L-41.9,333.2L-37.0,335.7Z" fill="#15837C" stroke="#0B3C49" stroke-width="0.6" opacity="0.42"/>
    <path d="M144.7,71.1L141.2,73.0L142.9,75.0L140.9,77.0L143.3,77.7L141.2,80.3L145.0,81.1L142.2,84.2L143.9,86.3L140.7,85.6L142.5,87.6L138.6,87.6L134.8,92.5L133.0,90.1L124.9,93.9L114.8,94.3L109.3,89.9L107.7,84.0L100.3,81.8L101.6,79.0L104.1,80.8L108.1,79.0L105.2,78.1L109.3,76.0L105.7,76.5L106.6,72.4L100.5,68.1L110.0,71.5L111.1,69.9L107.8,68.7L112.6,67.7L102.0,61.0L104.9,62.4L105.3,59.1L107.6,62.1L106.5,58.9L108.8,60.7L107.4,57.7L109.8,56.6L111.8,62.3L111.7,57.3L114.2,58.2L112.2,55.0L115.0,56.2L116.8,62.7L115.4,65.5L113.8,64.4L113.5,71.7L116.3,67.8L119.2,68.4L120.7,63.9L122.6,69.3L127.3,65.7L127.7,72.8L129.2,66.9L130.9,71.0L133.9,68.5L136.4,70.5L137.5,66.6L140.5,72.2L144.7,71.1Z" fill="#15837C" stroke="#0B3C49" stroke-width="0.6" opacity="0.42"/>
    <path d="M286.0,427.3L284.0,426.5L286.0,427.3Z" fill="#15837C" stroke="#0B3C49" stroke-width="0.6" opacity="0.42"/>
    <path d="M273.3,285.2L266.1,292.8L268.2,299.9L262.7,297.2L255.6,301.1L249.8,299.2L247.9,302.6L246.4,299.6L236.7,296.6L236.5,298.9L229.6,298.8L234.3,283.7L224.2,281.1L221.7,277.6L222.2,266.2L219.3,259.8L221.8,256.1L220.3,251.3L225.6,250.5L227.6,247.0L225.4,243.5L230.2,235.2L228.6,231.8L234.0,230.7L237.4,234.8L238.4,228.9L245.7,232.8L240.0,228.4L238.6,217.7L246.5,219.1L247.7,224.2L253.8,223.4L252.3,228.1L259.9,226.5L262.3,222.0L264.7,222.6L261.4,224.5L265.4,222.5L273.4,229.7L273.0,239.8L276.5,242.6L279.4,260.0L278.4,262.1L275.2,259.8L262.3,270.2L260.8,268.5L264.9,278.2L273.3,285.2ZM269.5,222.8L266.2,224.1L266.0,221.3L268.3,221.5L266.6,220.0L269.5,222.8Z" fill="#15837C" stroke="#0B3C49" stroke-width="0.6" opacity="0.42"/>
    <path d="M143.7,202.8L136.6,207.9L139.1,212.3L143.4,210.2L144.8,214.8L147.8,215.9L142.1,235.3L138.2,233.3L130.6,236.7L128.2,235.3L126.8,238.1L118.3,237.6L121.4,235.3L116.5,235.4L121.0,233.3L115.9,231.7L120.7,230.1L116.4,228.4L128.3,226.2L120.7,225.4L128.9,220.1L121.7,215.7L126.7,212.0L124.5,207.0L133.9,210.1L137.4,206.0L133.6,204.4L137.9,200.2L141.9,199.9L141.0,203.3L143.7,199.1L145.9,201.4L143.7,202.8Z" fill="#15837C" stroke="#0B3C49" stroke-width="0.6" opacity="0.42"/>
    <path d="M229.1,235.8L225.4,243.5L227.8,245.5L226.0,250.0L220.3,251.3L220.0,263.1L217.6,262.1L219.2,258.5L214.1,254.6L204.3,254.0L209.2,254.6L206.8,250.3L213.4,238.0L221.5,233.6L229.1,235.8ZM203.0,254.8L208.7,255.4L205.9,257.0L203.0,254.8Z" fill="#15837C" stroke="#0B3C49" stroke-width="0.6" opacity="0.42"/>
    <path d="M450.4,405.1L445.2,411.0L440.7,411.3L438.3,408.1L450.4,405.1Z" fill="#15837C" stroke="#0B3C49" stroke-width="0.6" opacity="0.42"/>
    <path d="M334.4,367.1L359.0,354.7L367.3,356.6L372.2,354.8L374.2,352.9L372.7,350.1L377.1,350.1L374.9,360.6L367.0,359.3L356.4,364.3L362.7,369.8L357.1,368.6L359.9,372.7L354.9,370.0L358.0,373.3L354.8,373.5L350.1,366.7L347.8,369.1L348.4,373.7L356.0,382.1L353.8,383.5L352.4,380.7L354.0,384.1L349.9,386.8L363.7,392.0L364.2,397.7L359.8,394.1L355.3,396.8L360.4,400.8L357.6,402.9L353.5,400.7L359.3,412.3L354.4,409.0L353.4,413.9L349.6,407.5L346.1,410.3L345.0,404.0L339.6,399.5L345.1,393.4L354.1,396.4L356.7,393.5L349.5,391.4L342.5,394.4L340.6,392.4L339.5,394.8L335.3,389.8L338.5,387.2L335.1,388.2L328.2,380.9L332.9,375.8L334.4,367.1ZM387.7,419.1L386.8,422.8L377.3,425.6L363.8,424.3L365.1,419.6L370.7,422.3L382.9,419.9L383.6,422.2L387.7,419.1ZM401.5,403.1L398.3,409.7L397.4,407.2L401.5,403.1ZM336.3,397.9L332.9,397.1L334.1,393.7L336.3,397.9ZM380.0,384.3L379.2,388.8L377.4,384.5L380.0,384.3ZM367.9,391.3L366.5,393.7L363.0,389.5L352.4,386.4L355.9,383.7L367.9,391.3ZM382.6,378.0L376.0,377.4L379.9,374.9L382.6,378.0Z" fill="#15837C" stroke="#0B3C49" stroke-width="0.6" opacity="0.42"/>

    <!-- capital markers -->
    
            <circle cx="447.0" cy="404.1" r="2.8" fill="#7FD4CB"/>
      <circle cx="268.6" cy="243.7" r="2.8" fill="#7FD4CB"/>
      <circle cx="361.2" cy="394.6" r="2.8" fill="#7FD4CB"/>
      <circle cx="145.3" cy="222.9" r="2.8" fill="#7FD4CB"/>
      <circle cx="213.9" cy="244.7" r="2.8" fill="#7FD4CB"/>
    
        <circle cx="291.5" cy="290.1" r="2.6" fill="#7FD4CB"/>
    <circle cx="209.2" cy="261.3" r="2.6" fill="#7FD4CB"/>
    <circle cx="349.8" cy="343.6" r="2.6" fill="#7FD4CB"/>
    <circle cx="290.8" cy="316.9" r="2.6" fill="#7FD4CB"/>
    <circle cx="276.8" cy="270.4" r="2.6" fill="#7FD4CB"/>
    <circle cx="262.1" cy="208.8" r="2.6" fill="#7FD4CB"/>
    <circle cx="325.4" cy="158.7" r="2.6" fill="#7FD4CB"/>
    <circle cx="324.7" cy="150.5" r="2.6" fill="#7FD4CB"/>
    <circle cx="193.8" cy="282.0" r="2.6" fill="#7FD4CB"/>
    <circle cx="311.1" cy="295.9" r="2.6" fill="#7FD4CB"/>
    <circle cx="266.5" cy="361.8" r="2.6" fill="#7FD4CB"/>
    <circle cx="327.5" cy="186.5" r="2.6" fill="#7FD4CB"/>
    <circle cx="339.2" cy="209.7" r="2.6" fill="#7FD4CB"/>
    <circle cx="220.3" cy="275.8" r="2.6" fill="#7FD4CB"/>
    <circle cx="285.7" cy="427.2" r="2.6" fill="#7FD4CB"/>
    <circle cx="317.6" cy="241.8" r="2.6" fill="#7FD4CB"/>
    <circle cx="90.0" cy="376.4" r="2.6" fill="#7FD4CB"/>
    <circle cx="367.3" cy="320.3" r="2.6" fill="#7FD4CB"/>
    <circle cx="296.8" cy="290.3" r="2.6" fill="#7FD4CB"/>
    <circle cx="279.8" cy="315.0" r="2.6" fill="#7FD4CB"/>
    <circle cx="136.8" cy="368.0" r="2.6" fill="#7FD4CB"/>
    <circle cx="290.2" cy="165.9" r="2.6" fill="#7FD4CB"/>
    <circle cx="250.8" cy="162.1" r="2.6" fill="#7FD4CB"/>
    <circle cx="228.4" cy="305.8" r="2.6" fill="#7FD4CB"/>
    <circle cx="105.0" cy="80.1" r="2.6" fill="#7FD4CB"/>
        <text x="295.5" y="300.1" fill="#8FB3AF" font-size="9.5" font-family="ui-monospace,Menlo,monospace" font-weight="400" text-anchor="start">AT</text>
    <text x="457.0" y="408.1" fill="#8FB3AF" font-size="9.5" font-family="ui-monospace,Menlo,monospace" font-weight="400" text-anchor="start">CY</text>
    <text x="282.8" y="262.4" fill="#8FB3AF" font-size="9.5" font-family="ui-monospace,Menlo,monospace" font-weight="400" text-anchor="start">CZ</text>
    <text x="270.1" y="202.8" fill="#8FB3AF" font-size="9.5" font-family="ui-monospace,Menlo,monospace" font-weight="400" text-anchor="start">DK</text>
    <text x="335.4" y="158.7" fill="#8FB3AF" font-size="9.5" font-family="ui-monospace,Menlo,monospace" font-weight="400" text-anchor="start">EE</text>
    <text x="331.7" y="153.5" fill="#8FB3AF" font-size="9.5" font-family="ui-monospace,Menlo,monospace" font-weight="400" text-anchor="start">FI</text>
    <text x="200.8" y="285.0" fill="#8FB3AF" font-size="9.5" font-family="ui-monospace,Menlo,monospace" font-weight="400" text-anchor="start">FR</text>
    <text x="275.6" y="246.7" fill="#8FB3AF" font-size="9.5" font-family="ui-monospace,Menlo,monospace" font-weight="400" text-anchor="start">DE</text>
    <text x="367.2" y="406.6" fill="#8FB3AF" font-size="9.5" font-family="ui-monospace,Menlo,monospace" font-weight="400" text-anchor="start">EL</text>
    <text x="131.3" y="218.9" fill="#8FB3AF" font-size="9.5" font-family="ui-monospace,Menlo,monospace" font-weight="400" text-anchor="end">IE</text>
    <text x="273.5" y="364.8" fill="#8FB3AF" font-size="9.5" font-family="ui-monospace,Menlo,monospace" font-weight="400" text-anchor="start">IT</text>
    <text x="199.9" y="238.7" fill="#8FB3AF" font-size="9.5" font-family="ui-monospace,Menlo,monospace" font-weight="400" text-anchor="end">NL</text>
    <text x="324.6" y="244.8" fill="#8FB3AF" font-size="9.5" font-family="ui-monospace,Menlo,monospace" font-weight="400" text-anchor="start">PL</text>
    <text x="74.0" y="380.4" fill="#8FB3AF" font-size="9.5" font-family="ui-monospace,Menlo,monospace" font-weight="400" text-anchor="end">PT</text>
    <text x="374.3" y="323.3" fill="#8FB3AF" font-size="9.5" font-family="ui-monospace,Menlo,monospace" font-weight="400" text-anchor="start">RO</text>
    <text x="143.8" y="371.0" fill="#8FB3AF" font-size="9.5" font-family="ui-monospace,Menlo,monospace" font-weight="400" text-anchor="start">ES</text>
    <text x="297.2" y="168.9" fill="#8FB3AF" font-size="9.5" font-family="ui-monospace,Menlo,monospace" font-weight="400" text-anchor="start">SE</text>
    <text x="257.8" y="165.1" fill="#8FB3AF" font-size="9.5" font-family="ui-monospace,Menlo,monospace" font-weight="400" text-anchor="start">NO</text>
    <text x="214.4" y="309.8" fill="#8FB3AF" font-size="9.5" font-family="ui-monospace,Menlo,monospace" font-weight="400" text-anchor="end">CH</text>
    <text x="105.0" y="68.1" fill="#8FB3AF" font-size="9.5" font-family="ui-monospace,Menlo,monospace" font-weight="400" text-anchor="start">IS</text>
  </g>

  <line x1="560" y1="44" x2="560" y2="436" stroke="#15837C" stroke-width="1" opacity="0.25"/>

  <!-- ============ RIGHT PANEL ============ -->
  <text x="600" y="74" fill="#F0B429" font-size="11.5" font-family="ui-monospace,Menlo,monospace" letter-spacing="2.6">30 COUNTRIES · 16 INDICATORS · UPDATED MONTHLY</text>

  <g font-family="ui-sans-serif,system-ui,-apple-system,sans-serif">
    <text x="600" y="124" fill="#EAF2F1" font-size="44" font-weight="700" letter-spacing="-1.2">Euro Analyst</text>
    <text x="600" y="172" fill="#7FD4CB" font-size="44" font-weight="700" letter-spacing="-1.2">Compass</text>
    <text x="600" y="209" fill="#9FC0BC" font-size="14.5">Where should a data analyst in Europe move next?</text>
    <text x="600" y="230" fill="#6F918D" font-size="13">Economy · Salaries · Cost of living · Job market · Quality of life</text>
  </g>

  <!-- score bars (illustrative) -->
  <text x="600" y="270" fill="#5A8A87" font-size="10.5" font-family="ui-monospace,Menlo,monospace" letter-spacing="1.5">OVERALL SCORE</text>
  <g>
    <rect x="600" y="280" width="218" height="15" rx="2.5" fill="url(#bar)" opacity="0.92"/>
    <rect x="600" y="301" width="196" height="15" rx="2.5" fill="url(#bar)" opacity="0.78"/>
    <rect x="600" y="322" width="186" height="15" rx="2.5" fill="url(#bar)" opacity="0.64"/>
    <rect x="600" y="343" width="133" height="15" rx="2.5" fill="url(#bar)" opacity="0.5"/>
    <rect x="600" y="364" width="118" height="15" rx="2.5" fill="url(#bar)" opacity="0.36"/>
  </g>

  <!-- sparkline -->
  <text x="920" y="270" fill="#5A8A87" font-size="10.5" font-family="ui-monospace,Menlo,monospace" letter-spacing="1.5">GDP GROWTH</text>
  <polygon points="920,368 940,346 960,353 980,338 1000,343 1020,328 1040,336 1060,320 1080,326 1100,313 1120,316 1140,306 1140,382 920,382" fill="url(#spark)"/>
  <polyline points="920,368 940,346 960,353 980,338 1000,343 1020,328 1040,336 1060,320 1080,326 1100,313 1120,316 1140,306" fill="none" stroke="#F0B429" stroke-width="2" stroke-linejoin="round" stroke-linecap="round"/>
  <circle cx="1140" cy="306" r="2.8" fill="#7FD4CB" filter="url(#glow)"/>
  <line x1="920" y1="382" x2="1150" y2="382" stroke="#15837C" stroke-width="1" opacity="0.35"/>

  <!-- source pills -->
  <g font-family="ui-sans-serif,system-ui,sans-serif" font-size="11.5">
    <rect x="600" y="412" width="104" height="25" rx="12.5" fill="#15837C" fill-opacity="0.16" stroke="#15837C" stroke-opacity="0.45"/>
    <text x="652" y="428.5" fill="#7FD4CB" text-anchor="middle">Eurostat</text>
    <rect x="712" y="412" width="94" height="25" rx="12.5" fill="#15837C" fill-opacity="0.16" stroke="#15837C" stroke-opacity="0.45"/>
    <text x="759" y="428.5" fill="#7FD4CB" text-anchor="middle">Adzuna</text>
    <rect x="814" y="412" width="88" height="25" rx="12.5" fill="#15837C" fill-opacity="0.16" stroke="#15837C" stroke-opacity="0.45"/>
    <text x="858" y="428.5" fill="#7FD4CB" text-anchor="middle">Jooble</text>
    <rect x="910" y="412" width="84" height="25" rx="12.5" fill="#15837C" fill-opacity="0.16" stroke="#15837C" stroke-opacity="0.45"/>
    <text x="952" y="428.5" fill="#7FD4CB" text-anchor="middle">EF EPI</text>
  </g>
  <text x="600" y="461" fill="#5A8A87" font-size="10.5" font-family="ui-monospace,Menlo,monospace">Free official APIs · rebuilt monthly by GitHub Actions</text>
</svg>
